<svg width="188" height="76" viewBox="0 0 188 76" fill="none" xmlns="http://www.w3.org/2000/svg">
    <path d="M13.3117 75.1844C10.5205 75.1868 8.2227 74.7594 6.41839 73.9022C4.65703 73.0449 3.30336 71.9081 2.3574 70.4918C1.45438 69.0756 0.894784 67.5301 0.678606 65.8556C0.505331 64.1381 0.589707 62.4203 0.931734 60.7024L7.11489 60.1817C6.85882 61.9854 6.9032 63.6172 7.24801 65.0769C7.59283 66.5366 8.25944 67.6955 9.24785 68.5534C10.2792 69.4114 11.6537 69.8396 13.3714 69.8381C14.359 69.8372 15.2607 69.6646 16.0763 69.3204C16.9348 68.9761 17.6214 68.3958 18.1359 67.5794C18.6934 66.7201 18.9715 65.539 18.9702 64.036C18.9688 62.4901 18.6456 61.2021 18.0006 60.1721C17.3985 59.142 16.4744 58.1981 15.2284 57.3404C14.0253 56.4826 12.5645 55.6036 10.846 54.7033C9.55712 53.9744 8.2897 53.2455 7.04375 52.5166C5.8407 51.7447 4.74494 50.8868 3.75645 49.943C2.81086 48.9562 2.03691 47.8189 1.4346 46.5312C0.875226 45.2434 0.594786 43.7407 0.593278 42.023C0.591432 39.9189 1.04068 38.0505 1.94102 36.4179C2.84137 34.7854 4.19292 33.5174 5.99568 32.614C7.84135 31.6677 10.1383 31.1933 12.8866 31.1909C15.9354 31.1882 18.3836 31.7658 20.2311 32.9236C22.1216 34.0814 23.4542 35.669 24.2289 37.6866C25.0466 39.7042 25.3492 42.0013 25.1367 44.578L18.7605 45.2277C18.931 43.8534 18.9085 42.6511 18.6929 41.6207C18.5202 40.5473 18.1544 39.6458 17.5955 38.9163C17.0795 38.1438 16.4134 37.5861 15.5972 37.2433C14.781 36.8576 13.8576 36.6651 12.827 36.666C11.6246 36.6671 10.6157 36.8827 9.80015 37.3128C8.98463 37.7429 8.36251 38.3447 7.93377 39.118C7.50503 39.8913 7.29111 40.7933 7.29202 41.8239C7.29322 43.198 7.65926 44.3786 8.39014 45.3656C9.16396 46.3526 10.1094 47.1891 11.2265 47.8752C12.3436 48.5613 13.5036 49.2044 14.7065 49.8046C15.9523 50.4046 17.2197 51.1335 18.5087 51.9912C19.7977 52.806 20.9794 53.7712 22.054 54.8867C23.1714 55.9593 24.0528 57.2467 24.6983 58.7491C25.3866 60.2086 25.7317 61.9474 25.7335 63.9657C25.7352 65.941 25.3289 67.7878 24.5145 69.5062C23.743 71.2246 22.456 72.5998 20.6533 73.632C18.8507 74.6642 16.4035 75.1816 13.3117 75.1844ZM41.384 75.1597C38.8504 75.1619 36.7244 74.67 35.0058 73.6838C33.2873 72.6547 31.9118 71.1959 30.8796 69.3074C29.8473 67.4189 29.0939 65.1651 28.6192 62.546C28.1875 59.927 27.9702 57.0286 27.9674 53.8509C27.9644 50.3297 28.2192 47.1732 28.7321 44.3816C29.2449 41.5899 30.0373 39.206 31.1091 37.2297C32.1809 35.2534 33.5752 33.7493 35.2919 32.7171C37.0516 31.685 39.1339 31.1679 41.5386 31.1658C43.7286 31.1638 45.554 31.5702 47.0147 32.3848C48.5184 33.1564 49.7002 34.2504 50.5603 35.6667C51.4633 37.083 52.0874 38.7142 52.4326 40.5604C52.7777 42.4066 52.8653 44.3389 52.6953 46.3573L46.3835 47.0714C46.5103 44.7525 46.3798 42.8202 45.9919 41.2746C45.6041 39.7291 44.9804 38.5702 44.1209 37.798C43.3044 37.0258 42.3593 36.6401 41.2858 36.6411C40.2552 36.642 39.3108 37.0078 38.4526 37.7386C37.6373 38.4693 36.9512 39.5434 36.3942 40.961C35.8801 42.3785 35.4737 44.1395 35.175 46.2439C34.9192 48.3483 34.7925 50.7531 34.7948 53.4584C34.7983 57.452 35.0803 60.6295 35.6406 62.9908C36.2008 65.3091 36.9538 66.9832 37.8994 68.013C38.888 69.0427 40.0049 69.557 41.2502 69.5559C42.6673 69.5547 43.8048 68.9955 44.6626 67.8782C45.5634 66.718 46.1847 65.1501 46.5265 63.1745C46.9112 61.1988 46.9951 58.9658 46.7782 56.4753L53.2201 57.1782C53.394 59.5828 53.3531 61.8802 53.0973 64.0705C52.8416 66.2178 52.2635 68.1292 51.3632 69.8047C50.5059 71.4802 49.2617 72.791 47.6307 73.7372C45.9998 74.6833 43.9175 75.1575 41.384 75.1597ZM56.6179 74.3734L56.5806 31.8611L67.3375 31.8517C68.4969 31.8506 69.6994 31.9569 70.9449 32.1706C72.2333 32.3841 73.4575 32.7695 74.6174 33.3268C75.8202 33.841 76.8944 34.5701 77.8399 35.514C78.8284 36.4578 79.6024 37.6595 80.162 39.119C80.7214 40.5356 81.0021 42.2745 81.0039 44.3357C81.0051 45.6669 80.8559 46.9338 80.5563 48.1365C80.2997 49.2961 79.8283 50.3701 79.1421 51.3583C78.4988 52.3465 77.5978 53.1847 76.439 53.8728C75.2801 54.5609 73.8421 55.0989 72.1247 55.4869L72.1253 56.131C73.7572 56.3014 75.0459 56.7511 75.9913 57.4803C76.9796 58.2094 77.7534 59.2179 78.3128 60.5056C78.8721 61.7505 79.3673 63.3174 79.7984 65.2065L81.8032 74.3513L74.7822 74.3575L73.0355 65.6633C72.7766 64.3323 72.4535 63.1302 72.0661 62.057C71.7216 60.9838 71.1412 60.1469 70.3248 59.5465C69.5512 58.903 68.413 58.582 66.91 58.5833L63.3673 58.5864L63.3812 74.3675L56.6179 74.3734ZM63.363 53.6266L66.326 53.624C69.0313 53.6216 71.006 52.9543 72.2502 51.622C73.5372 50.2468 74.1795 48.0991 74.1769 45.1791C74.1746 42.6026 73.5933 40.6922 72.4327 39.4479C71.3151 38.1606 69.4681 37.5181 66.8916 37.5204L63.3489 37.5235L63.363 53.6266ZM82.639 74.3506L90.7821 31.8311L101.797 31.8214L109.95 74.3266L102.671 74.333L96.6486 37.4298L95.8112 37.4306L89.7244 74.3443L82.639 74.3506ZM88.6863 65.7784L88.6821 60.9474L104.27 60.9338L104.274 65.7647L88.6863 65.7784ZM116.378 62.6623L116.374 56.994L121.398 56.9896C124.318 56.987 126.507 56.1692 127.966 54.5361C129.424 52.903 130.152 50.4118 130.149 47.0623C130.146 43.7988 129.479 41.3946 128.146 39.8499C126.813 38.2622 124.794 37.4695 122.089 37.4719L116.356 37.477L116.351 31.8086L122.857 31.8029C124.575 31.8014 126.271 32.0576 127.946 32.5714C129.664 33.0852 131.211 33.9427 132.586 35.1439C133.961 36.3021 135.058 37.8685 135.875 39.8431C136.736 41.7747 137.168 44.1791 137.17 47.0562C137.173 50.6633 136.489 53.6269 135.117 55.9469C133.745 58.224 131.814 59.9219 129.324 61.0406C126.834 62.1163 123.936 62.6556 120.63 62.6585L116.378 62.6623ZM112.073 74.3247L112.036 31.8124L118.799 31.8065L118.836 74.3188L112.073 74.3247ZM139.926 74.3003L139.889 31.788L146.652 31.7821L146.69 74.2944L139.926 74.3003ZM143.534 74.2971L143.529 68.6288L159.181 68.6151L159.186 74.2834L143.534 74.2971ZM143.517 55.2954L143.512 49.8848L157.619 49.8724L157.623 55.283L143.517 55.2954ZM143.501 37.4531L143.496 31.7848L159.149 31.7711L159.154 37.4394L143.501 37.4531ZM162.056 74.2809L162.018 31.7686L172.775 31.7591C173.935 31.7581 175.137 31.8644 176.383 32.078C177.671 32.2916 178.895 32.677 180.055 33.2342C181.258 33.7485 182.332 34.4775 183.278 35.4214C184.266 36.3653 185.04 37.567 185.6 39.0265C186.159 40.4431 186.44 42.182 186.442 44.2432C186.443 45.5744 186.294 46.8413 185.994 48.0439C185.738 49.2036 185.266 50.2775 184.58 51.2658C183.937 52.254 183.036 53.0922 181.877 53.7803C180.718 54.4683 179.28 55.0064 177.563 55.3944L177.563 56.0385C179.195 56.2088 180.484 56.6586 181.429 57.3878C182.417 58.1169 183.191 59.1254 183.751 60.4131C184.31 61.6579 184.805 63.2249 185.236 65.1139L187.241 74.2588L180.22 74.2649L178.473 65.5708C178.214 64.2398 177.891 63.0377 177.504 61.9645C177.159 60.8913 176.579 60.0544 175.763 59.4539C174.989 58.8105 173.851 58.4894 172.348 58.4907L168.805 58.4939L168.819 74.2749L162.056 74.2809ZM168.801 53.5341L171.764 53.5315C174.469 53.5291 176.444 52.8618 177.688 51.5295C178.975 50.1542 179.617 48.0066 179.615 45.0865C179.612 42.51 179.031 40.5996 177.871 39.3553C176.753 38.0681 174.906 37.4256 172.329 37.4278L168.787 37.4309L168.801 53.5341Z" fill="#E9410C"/>
    <path d="M5.23033 18.634C4.29464 18.634 3.54767 18.4649 2.98941 18.1268C2.36824 17.773 2.05766 17.2501 2.05766 16.5582L2.05766 10.4841C1.59375 9.8315 1.3618 9.02949 1.3618 8.07808C1.3618 7.11881 1.59375 6.28928 2.05766 5.58949H3.86219C4.79001 5.58949 5.45442 5.88827 5.85542 6.48585C5.65885 6.70601 5.48587 6.98514 5.33647 7.32325C5.18708 7.66135 5.11238 7.9051 5.11238 8.05449C5.11238 8.19603 5.14777 8.30217 5.21853 8.37294C5.29716 8.44371 5.40724 8.47909 5.54877 8.47909C5.82397 7.38615 6.34685 6.58414 7.11741 6.07305C7.75431 5.64059 8.54059 5.42437 9.47627 5.42437C10.64 5.42437 11.5521 5.67205 12.2126 6.16741C12.4484 6.79644 12.5664 7.567 12.5664 8.47909C12.5664 9.38332 12.3855 10.205 12.0238 10.9441C11.7565 11.0856 11.387 11.2075 10.9152 11.3097C10.4434 11.4041 9.9677 11.4513 9.48807 11.4513C9.00843 11.4513 8.57598 11.4198 8.1907 11.3569C7.81328 11.2861 7.53808 11.2232 7.36509 11.1682C7.30219 11.2311 7.27074 11.3215 7.27074 11.4395C7.27074 11.5574 7.34544 11.6478 7.49483 11.7107C7.65209 11.7658 7.91156 11.8287 8.27326 11.8994V17.8202C7.4162 18.3627 6.40189 18.634 5.23033 18.634ZM18.9245 13.3383C19.0188 13.3383 19.121 13.299 19.2311 13.2204C19.1525 12.9609 19.1132 12.556 19.1132 12.0056V6.1792C19.9466 5.67598 20.9491 5.42437 22.1207 5.42437C22.7812 5.42437 23.3591 5.51479 23.8545 5.69563C24.3577 5.86862 24.743 6.10057 25.0103 6.3915V12.5363C25.0103 13.7079 25.2934 14.4706 25.8595 14.8244C25.8674 14.8637 25.8713 14.9384 25.8713 15.0485V15.2608C25.8713 16.4088 25.5686 17.2776 24.9631 17.8674C24.4127 18.4178 23.654 18.693 22.6868 18.693C22.0814 18.693 21.531 18.5554 21.0356 18.2802C20.5481 18.005 20.1825 17.6039 19.9388 17.0771C19.6714 17.0771 19.5378 17.2069 19.5378 17.4663C19.5378 17.6472 19.6282 17.828 19.809 18.0089C19.5574 18.2133 19.2547 18.3784 18.9009 18.5042C18.547 18.6301 18.0242 18.693 17.3322 18.693C16.6482 18.693 15.9798 18.5514 15.3272 18.2684C14.5173 17.9224 13.8961 17.3916 13.4637 16.6761C12.9369 15.8269 12.6735 14.7497 12.6735 13.4445L12.6735 10.4841C12.2725 9.78433 12.072 9.01376 12.072 8.17244C12.072 7.73998 12.127 7.2918 12.2371 6.82789C12.3472 6.36398 12.5241 5.95118 12.7678 5.58949H15.3626C16.3376 5.58949 17.1003 5.82144 17.6507 6.28535C18.2089 6.7414 18.4881 7.43726 18.4881 8.37294V12.1943C18.4881 12.957 18.6335 13.3383 18.9245 13.3383ZM31.6986 9.23392C31.4942 9.29683 31.392 9.4187 31.392 9.59955V9.65852C31.392 9.69783 31.3959 9.72142 31.4038 9.72929C31.4903 9.72142 31.6043 9.71749 31.7458 9.71749H32.0289C32.9252 9.71749 33.7626 9.85509 34.541 10.1303C35.3273 10.3976 35.9682 10.8301 36.4635 11.4277C37.0139 12.1039 37.2891 12.957 37.2891 13.987C37.2891 15.5911 36.7348 16.8019 35.6261 17.6197C34.5175 18.4374 33.0353 18.8463 31.1797 18.8463C29.324 18.8463 27.8694 18.5396 26.8158 17.9263C25.77 17.313 25.2471 16.4127 25.2471 15.2254C25.2471 14.7851 25.3415 14.3841 25.5302 14.0224C25.7189 13.6529 25.9312 13.3934 26.1671 13.244C26.5996 13.6057 27.2247 13.9202 28.0424 14.1875C28.868 14.447 29.7408 14.5767 30.6607 14.5767C31.0303 14.5767 31.2151 14.4745 31.2151 14.2701C31.2151 14.1757 31.2033 14.0971 31.1797 14.0342C31.1246 14.0421 31.0578 14.046 30.9792 14.046H30.8494C29.1825 14.046 27.8497 13.7158 26.8512 13.0553C25.7189 12.3083 25.1528 11.2547 25.1528 9.89441C25.1528 8.53413 25.6599 7.43333 26.6742 6.592C27.7986 5.66418 29.3437 5.20027 31.3094 5.20027C32.2765 5.20027 33.1768 5.30249 34.0103 5.50693C34.8516 5.71136 35.5711 5.98263 36.1687 6.32073C36.3181 6.64311 36.3928 7.11881 36.3928 7.74784C36.3928 8.70711 36.1293 9.44229 35.6025 9.95338C35.2015 9.73322 34.7101 9.55237 34.1282 9.41084C33.5543 9.26144 33.0353 9.18675 32.5714 9.18675C32.1075 9.18675 31.8166 9.20247 31.6986 9.23392ZM42.7272 13.6568C42.8059 13.7354 42.9002 13.7747 43.0103 13.7747C43.1833 13.7747 43.3012 13.6529 43.3641 13.4091C43.427 13.1575 43.4585 12.6543 43.4585 11.8994V10.6964C43.4585 10.4841 43.431 10.3347 43.3759 10.2482C43.3209 10.1617 43.2305 10.1185 43.1047 10.1185C42.9788 10.1185 42.8884 10.146 42.8334 10.2011V11.7815C42.8334 12.2533 42.798 12.8784 42.7272 13.6568ZM43.199 3.99726V5.04695C42.5385 5.08626 41.9331 5.18848 41.3827 5.3536C40.8323 5.51086 40.5571 5.69563 40.5571 5.90793C40.5571 6.03374 40.62 6.13596 40.7458 6.21458C41.6107 5.78999 42.5267 5.57769 43.4939 5.57769C45.2237 5.57769 46.639 6.17527 47.7398 7.37043C48.8485 8.55772 49.4028 10.1067 49.4028 12.0174C49.4028 14.3291 48.7345 16.0707 47.3978 17.2423C46.179 18.3116 44.52 18.8463 42.4206 18.8463C40.3291 18.8463 38.7879 18.4413 37.7972 17.6315C37.2547 17.1833 36.9834 16.6014 36.9834 15.8859V2.42861C37.3608 2.20845 37.8129 2.02761 38.3398 1.88608C38.8744 1.74454 39.413 1.67378 39.9556 1.67378C40.8598 1.67378 41.6068 1.85069 42.1965 2.20452C42.8648 2.62125 43.199 3.21883 43.199 3.99726ZM55.9968 18.8463C53.8188 18.8463 52.1007 18.2408 50.8427 17.03C49.5531 15.8112 48.9084 14.1443 48.9084 12.0292C48.9084 9.9062 49.5728 8.22355 50.9016 6.98121C52.1282 5.82537 53.6812 5.24745 55.5604 5.24745C57.4396 5.24745 58.9453 5.7664 60.0776 6.8043C61.2177 7.83433 61.7878 9.10419 61.7878 10.6139C61.7878 11.9584 61.3199 12.9727 60.3842 13.6568C59.5193 14.3015 58.3399 14.6239 56.846 14.6239C55.7294 14.6239 54.7859 14.392 54.0153 13.9281C53.9524 13.9752 53.921 14.0617 53.921 14.1875C53.921 14.4234 54.2316 14.6396 54.8527 14.8362C55.4739 15.0485 56.1776 15.1547 56.9639 15.1547C57.7581 15.1547 58.4775 15.0564 59.1223 14.8598C59.7749 14.6554 60.2978 14.4156 60.6909 14.1404C60.8796 14.3055 61.029 14.6121 61.1391 15.0603C61.257 15.5006 61.316 15.9056 61.316 16.2751C61.316 16.6368 61.2806 16.9592 61.2098 17.2423C60.5965 17.7612 59.9675 18.1308 59.3228 18.3509C58.4107 18.6812 57.302 18.8463 55.9968 18.8463ZM55.8434 10.8615C56.2366 10.8615 56.4332 10.7121 56.4332 10.4134C56.4332 10.1303 56.2248 9.98876 55.8081 9.98876C55.3913 9.98876 55.1515 10.2129 55.0886 10.661C55.3088 10.7947 55.5604 10.8615 55.8434 10.8615ZM55.5722 4.64594C54.4242 4.64594 53.4138 4.85431 52.541 5.27104L55.3953 1.14303C56.0007 0.71844 56.6494 0.506143 57.3413 0.506143C58.0411 0.506143 58.5954 0.722372 59.0043 1.15483C59.421 1.57942 59.6294 2.07085 59.6294 2.62912C59.6294 3.17952 59.4525 3.63163 59.0987 3.98546C58.8235 4.26066 58.3989 4.50441 57.8249 4.71671L57.4593 4.85824C56.8538 4.71671 56.2248 4.64594 55.5722 4.64594Z" fill="#B01F44"/>
    </svg>
    